# SCN_NeonFoundry_TestRoom
mtllib ../Materials/AXION_LevelKit.mtl
v -7.00000 -0.37500 -0.60000
v 7.00000 -0.37500 -0.60000
v 7.00000 -0.02500 -0.60000
v -7.00000 -0.02500 -0.60000
v -7.00000 -0.37500 0.60000
v 7.00000 -0.37500 0.60000
v 7.00000 -0.02500 0.60000
v -7.00000 -0.02500 0.60000
v -6.90000 -0.01500 -0.62500
v 6.90000 -0.01500 -0.62500
v 6.90000 0.05500 -0.62500
v -6.90000 0.05500 -0.62500
v -6.90000 -0.01500 0.62500
v 6.90000 -0.01500 0.62500
v 6.90000 0.05500 0.62500
v -6.90000 0.05500 0.62500
v -6.22500 -0.20000 -0.60000
v -5.77500 -0.20000 -0.60000
v -5.77500 3.80000 -0.60000
v -6.22500 3.80000 -0.60000
v -6.22500 -0.20000 0.60000
v -5.77500 -0.20000 0.60000
v -5.77500 3.80000 0.60000
v -6.22500 3.80000 0.60000
v 5.77500 -0.20000 -0.60000
v 6.22500 -0.20000 -0.60000
v 6.22500 3.80000 -0.60000
v 5.77500 3.80000 -0.60000
v 5.77500 -0.20000 0.60000
v 6.22500 -0.20000 0.60000
v 6.22500 3.80000 0.60000
v 5.77500 3.80000 0.60000
v -4.10000 1.15000 -0.55000
v -0.90000 1.15000 -0.55000
v -0.90000 1.45000 -0.55000
v -4.10000 1.45000 -0.55000
v -4.10000 1.15000 0.55000
v -0.90000 1.15000 0.55000
v -0.90000 1.45000 0.55000
v -4.10000 1.45000 0.55000
v 1.10000 2.25000 -0.55000
v 4.10000 2.25000 -0.55000
v 4.10000 2.55000 -0.55000
v 1.10000 2.55000 -0.55000
v 1.10000 2.25000 0.55000
v 4.10000 2.25000 0.55000
v 4.10000 2.55000 0.55000
v 1.10000 2.55000 0.55000
v -3.85000 0.22500 -0.57500
v -2.15000 0.22500 -0.57500
v -2.15000 0.37500 -0.57500
v -3.85000 0.37500 -0.57500
v -3.85000 0.22500 0.57500
v -2.15000 0.22500 0.57500
v -2.15000 0.37500 0.57500
v -3.85000 0.37500 0.57500
v 1.75000 2.82500 -0.57500
v 3.45000 2.82500 -0.57500
v 3.45000 2.97500 -0.57500
v 1.75000 2.97500 -0.57500
v 1.75000 2.82500 0.57500
v 3.45000 2.82500 0.57500
v 3.45000 2.97500 0.57500
v 1.75000 2.97500 0.57500
v 4.40000 0.15000 -0.30000
v 5.60000 0.15000 -0.30000
v 5.60000 3.15000 -0.30000
v 4.40000 3.15000 -0.30000
v 4.40000 0.15000 0.00000
v 5.60000 0.15000 0.00000
v 5.60000 3.15000 0.00000
v 4.40000 3.15000 0.00000
v 4.16000 0.35000 -0.38000
v 4.24000 0.35000 -0.38000
v 4.24000 2.95000 -0.38000
v 4.16000 2.95000 -0.38000
v 4.16000 0.35000 -0.32000
v 4.24000 0.35000 -0.32000
v 4.24000 2.95000 -0.32000
v 4.16000 2.95000 -0.32000
v 5.76000 0.35000 -0.38000
v 5.84000 0.35000 -0.38000
v 5.84000 2.95000 -0.38000
v 5.76000 2.95000 -0.38000
v 5.76000 0.35000 -0.32000
v 5.84000 0.35000 -0.32000
v 5.84000 2.95000 -0.32000
v 5.76000 2.95000 -0.32000
v -1.12500 0.00000 -0.45000
v -0.47500 0.00000 -0.45000
v -0.80000 0.65000 -0.45000
v -1.12500 0.00000 0.45000
v -0.47500 0.00000 0.45000
v -0.80000 0.65000 0.45000
v -0.32500 0.00000 -0.45000
v 0.32500 0.00000 -0.45000
v 0.00000 0.65000 -0.45000
v -0.32500 0.00000 0.45000
v 0.32500 0.00000 0.45000
v 0.00000 0.65000 0.45000
v 0.47500 0.00000 -0.45000
v 1.12500 0.00000 -0.45000
v 0.80000 0.65000 -0.45000
v 0.47500 0.00000 0.45000
v 1.12500 0.00000 0.45000
v 0.80000 0.65000 0.45000
usemtl MAT_DarkMetal
f 1 2 3 4
f 5 8 7 6
f 1 5 6 2
f 2 6 7 3
f 3 7 8 4
f 4 8 5 1
usemtl MAT_LightPanel
f 9 10 11 12
f 13 16 15 14
f 9 13 14 10
f 10 14 15 11
f 11 15 16 12
f 12 16 13 9
usemtl MAT_DarkMetal
f 17 18 19 20
f 21 24 23 22
f 17 21 22 18
f 18 22 23 19
f 19 23 24 20
f 20 24 21 17
usemtl MAT_DarkMetal
f 25 26 27 28
f 29 32 31 30
f 25 29 30 26
f 26 30 31 27
f 27 31 32 28
f 28 32 29 25
usemtl MAT_DarkMetal
f 33 34 35 36
f 37 40 39 38
f 33 37 38 34
f 34 38 39 35
f 35 39 40 36
f 36 40 37 33
usemtl MAT_DarkMetal
f 41 42 43 44
f 45 48 47 46
f 41 45 46 42
f 42 46 47 43
f 43 47 48 44
f 44 48 45 41
usemtl MAT_EnergyCyan
f 49 50 51 52
f 53 56 55 54
f 49 53 54 50
f 50 54 55 51
f 51 55 56 52
f 52 56 53 49
usemtl MAT_EnergyBlue
f 57 58 59 60
f 61 64 63 62
f 57 61 62 58
f 58 62 63 59
f 59 63 64 60
f 60 64 61 57
usemtl MAT_GlassDark
f 65 66 67 68
f 69 72 71 70
f 65 69 70 66
f 66 70 71 67
f 67 71 72 68
f 68 72 69 65
usemtl MAT_EnergyCyan
f 73 74 75 76
f 77 80 79 78
f 73 77 78 74
f 74 78 79 75
f 75 79 80 76
f 76 80 77 73
usemtl MAT_EnergyCyan
f 81 82 83 84
f 85 88 87 86
f 81 85 86 82
f 82 86 87 83
f 83 87 88 84
f 84 88 85 81
usemtl MAT_HazardRed
f 89 90 91
f 92 94 93
f 89 92 93 90
f 90 93 94 91
f 91 94 92 89
usemtl MAT_HazardRed
f 95 96 97
f 98 100 99
f 95 98 99 96
f 96 99 100 97
f 97 100 98 95
usemtl MAT_HazardRed
f 101 102 103
f 104 106 105
f 101 104 105 102
f 102 105 106 103
f 103 106 104 101
