# SM_BackPanel_6x3
mtllib ../Materials/AXION_LevelKit.mtl
v -3.00000 -1.50000 -0.04000
v 3.00000 -1.50000 -0.04000
v 3.00000 1.50000 -0.04000
v -3.00000 1.50000 -0.04000
v -3.00000 -1.50000 0.04000
v 3.00000 -1.50000 0.04000
v 3.00000 1.50000 0.04000
v -3.00000 1.50000 0.04000
v -2.60000 0.76000 0.03000
v -1.40000 0.76000 0.03000
v -1.40000 0.84000 0.03000
v -2.60000 0.84000 0.03000
v -2.60000 0.76000 0.07000
v -1.40000 0.76000 0.07000
v -1.40000 0.84000 0.07000
v -2.60000 0.84000 0.07000
v 0.25000 -0.63000 0.03000
v 2.75000 -0.63000 0.03000
v 2.75000 -0.57000 0.03000
v 0.25000 -0.57000 0.03000
v 0.25000 -0.63000 0.07000
v 2.75000 -0.63000 0.07000
v 2.75000 -0.57000 0.07000
v 0.25000 -0.57000 0.07000
v -0.04000 -1.30000 0.04000
v 0.04000 -1.30000 0.04000
v 0.04000 1.30000 0.04000
v -0.04000 1.30000 0.04000
v -0.04000 -1.30000 0.08000
v 0.04000 -1.30000 0.08000
v 0.04000 1.30000 0.08000
v -0.04000 1.30000 0.08000
usemtl MAT_Background
f 1 2 3 4
f 5 8 7 6
f 1 5 6 2
f 2 6 7 3
f 3 7 8 4
f 4 8 5 1
usemtl MAT_EnergyCyan
f 9 10 11 12
f 13 16 15 14
f 9 13 14 10
f 10 14 15 11
f 11 15 16 12
f 12 16 13 9
usemtl MAT_EnergyBlue
f 17 18 19 20
f 21 24 23 22
f 17 21 22 18
f 18 22 23 19
f 19 23 24 20
f 20 24 21 17
usemtl MAT_MidMetal
f 25 26 27 28
f 29 32 31 30
f 25 29 30 26
f 26 30 31 27
f 27 31 32 28
f 28 32 29 25
