# SM_BossDoor
mtllib ../Materials/AXION_LevelKit.mtl
v -0.90000 0.00000 -0.20000
v 0.90000 0.00000 -0.20000
v 0.90000 3.60000 -0.20000
v -0.90000 3.60000 -0.20000
v -0.90000 0.00000 0.20000
v 0.90000 0.00000 0.20000
v 0.90000 3.60000 0.20000
v -0.90000 3.60000 0.20000
v -0.62500 0.35000 -0.27000
v 0.62500 0.35000 -0.27000
v 0.62500 3.25000 -0.27000
v -0.62500 3.25000 -0.27000
v -0.62500 0.35000 -0.19000
v 0.62500 0.35000 -0.19000
v 0.62500 3.25000 -0.19000
v -0.62500 3.25000 -0.19000
v -0.82000 0.50000 -0.30500
v -0.74000 0.50000 -0.30500
v -0.74000 3.10000 -0.30500
v -0.82000 3.10000 -0.30500
v -0.82000 0.50000 -0.25500
v -0.74000 0.50000 -0.25500
v -0.74000 3.10000 -0.25500
v -0.82000 3.10000 -0.25500
v 0.74000 0.50000 -0.30500
v 0.82000 0.50000 -0.30500
v 0.82000 3.10000 -0.30500
v 0.74000 3.10000 -0.30500
v 0.74000 0.50000 -0.25500
v 0.82000 0.50000 -0.25500
v 0.82000 3.10000 -0.25500
v 0.74000 3.10000 -0.25500
v -0.55000 3.20000 -0.30500
v 0.55000 3.20000 -0.30500
v 0.55000 3.30000 -0.30500
v -0.55000 3.30000 -0.30500
v -0.55000 3.20000 -0.25500
v 0.55000 3.20000 -0.25500
v 0.55000 3.30000 -0.25500
v -0.55000 3.30000 -0.25500
usemtl MAT_DarkMetal
f 1 2 3 4
f 5 8 7 6
f 1 5 6 2
f 2 6 7 3
f 3 7 8 4
f 4 8 5 1
usemtl MAT_GlassDark
f 9 10 11 12
f 13 16 15 14
f 9 13 14 10
f 10 14 15 11
f 11 15 16 12
f 12 16 13 9
usemtl MAT_EnergyCyan
f 17 18 19 20
f 21 24 23 22
f 17 21 22 18
f 18 22 23 19
f 19 23 24 20
f 20 24 21 17
usemtl MAT_EnergyCyan
f 25 26 27 28
f 29 32 31 30
f 25 29 30 26
f 26 30 31 27
f 27 31 32 28
f 28 32 29 25
usemtl MAT_WarningOrange
f 33 34 35 36
f 37 40 39 38
f 33 37 38 34
f 34 38 39 35
f 35 39 40 36
f 36 40 37 33
