# SM_Checkpoint_Beacon
mtllib ../Materials/AXION_LevelKit.mtl
v 0.35000 0.15000 -0.12500
v 0.33287 0.25816 -0.12500
v 0.28316 0.35572 -0.12500
v 0.20572 0.43316 -0.12500
v 0.10816 0.48287 -0.12500
v 0.00000 0.50000 -0.12500
v -0.10816 0.48287 -0.12500
v -0.20572 0.43316 -0.12500
v -0.28316 0.35572 -0.12500
v -0.33287 0.25816 -0.12500
v -0.35000 0.15000 -0.12500
v -0.33287 0.04184 -0.12500
v -0.28316 -0.05572 -0.12500
v -0.20572 -0.13316 -0.12500
v -0.10816 -0.18287 -0.12500
v -0.00000 -0.20000 -0.12500
v 0.10816 -0.18287 -0.12500
v 0.20572 -0.13316 -0.12500
v 0.28316 -0.05572 -0.12500
v 0.33287 0.04184 -0.12500
v 0.35000 0.15000 0.12500
v 0.33287 0.25816 0.12500
v 0.28316 0.35572 0.12500
v 0.20572 0.43316 0.12500
v 0.10816 0.48287 0.12500
v 0.00000 0.50000 0.12500
v -0.10816 0.48287 0.12500
v -0.20572 0.43316 0.12500
v -0.28316 0.35572 0.12500
v -0.33287 0.25816 0.12500
v -0.35000 0.15000 0.12500
v -0.33287 0.04184 0.12500
v -0.28316 -0.05572 0.12500
v -0.20572 -0.13316 0.12500
v -0.10816 -0.18287 0.12500
v -0.00000 -0.20000 0.12500
v 0.10816 -0.18287 0.12500
v 0.20572 -0.13316 0.12500
v 0.28316 -0.05572 0.12500
v 0.33287 0.04184 0.12500
v -0.09000 0.20000 -0.09000
v 0.09000 0.20000 -0.09000
v 0.09000 1.40000 -0.09000
v -0.09000 1.40000 -0.09000
v -0.09000 0.20000 0.09000
v 0.09000 0.20000 0.09000
v 0.09000 1.40000 0.09000
v -0.09000 1.40000 0.09000
v -0.27500 1.46000 -0.12500
v 0.27500 1.46000 -0.12500
v 0.27500 1.64000 -0.12500
v -0.27500 1.64000 -0.12500
v -0.27500 1.46000 0.12500
v 0.27500 1.46000 0.12500
v 0.27500 1.64000 0.12500
v -0.27500 1.64000 0.12500
v -0.17500 1.26000 -0.10000
v 0.17500 1.26000 -0.10000
v 0.17500 1.34000 -0.10000
v -0.17500 1.34000 -0.10000
v -0.17500 1.26000 0.10000
v 0.17500 1.26000 0.10000
v 0.17500 1.34000 0.10000
v -0.17500 1.34000 0.10000
usemtl MAT_DarkMetal
f 1 2 22 21
f 2 3 23 22
f 3 4 24 23
f 4 5 25 24
f 5 6 26 25
f 6 7 27 26
f 7 8 28 27
f 8 9 29 28
f 9 10 30 29
f 10 11 31 30
f 11 12 32 31
f 12 13 33 32
f 13 14 34 33
f 14 15 35 34
f 15 16 36 35
f 16 17 37 36
f 17 18 38 37
f 18 19 39 38
f 19 20 40 39
f 20 1 21 40
f 20 19 18 17 16 15 14 13 12 11 10 9 8 7 6 5 4 3 2 1
f 21 22 23 24 25 26 27 28 29 30 31 32 33 34 35 36 37 38 39 40
usemtl MAT_MidMetal
f 41 42 43 44
f 45 48 47 46
f 41 45 46 42
f 42 46 47 43
f 43 47 48 44
f 44 48 45 41
usemtl MAT_EnergyCyan
f 49 50 51 52
f 53 56 55 54
f 49 53 54 50
f 50 54 55 51
f 51 55 56 52
f 52 56 53 49
usemtl MAT_EnergyBlue
f 57 58 59 60
f 61 64 63 62
f 57 61 62 58
f 58 62 63 59
f 59 63 64 60
f 60 64 61 57
