# SM_EnergyOrb
mtllib ../Materials/AXION_LevelKit.mtl
v 0.30000 0.40000 -0.15000
v 0.28978 0.47765 -0.15000
v 0.25981 0.55000 -0.15000
v 0.21213 0.61213 -0.15000
v 0.15000 0.65981 -0.15000
v 0.07765 0.68978 -0.15000
v 0.00000 0.70000 -0.15000
v -0.07765 0.68978 -0.15000
v -0.15000 0.65981 -0.15000
v -0.21213 0.61213 -0.15000
v -0.25981 0.55000 -0.15000
v -0.28978 0.47765 -0.15000
v -0.30000 0.40000 -0.15000
v -0.28978 0.32235 -0.15000
v -0.25981 0.25000 -0.15000
v -0.21213 0.18787 -0.15000
v -0.15000 0.14019 -0.15000
v -0.07765 0.11022 -0.15000
v -0.00000 0.10000 -0.15000
v 0.07765 0.11022 -0.15000
v 0.15000 0.14019 -0.15000
v 0.21213 0.18787 -0.15000
v 0.25981 0.25000 -0.15000
v 0.28978 0.32235 -0.15000
v 0.30000 0.40000 0.15000
v 0.28978 0.47765 0.15000
v 0.25981 0.55000 0.15000
v 0.21213 0.61213 0.15000
v 0.15000 0.65981 0.15000
v 0.07765 0.68978 0.15000
v 0.00000 0.70000 0.15000
v -0.07765 0.68978 0.15000
v -0.15000 0.65981 0.15000
v -0.21213 0.61213 0.15000
v -0.25981 0.55000 0.15000
v -0.28978 0.47765 0.15000
v -0.30000 0.40000 0.15000
v -0.28978 0.32235 0.15000
v -0.25981 0.25000 0.15000
v -0.21213 0.18787 0.15000
v -0.15000 0.14019 0.15000
v -0.07765 0.11022 0.15000
v -0.00000 0.10000 0.15000
v 0.07765 0.11022 0.15000
v 0.15000 0.14019 0.15000
v 0.21213 0.18787 0.15000
v 0.25981 0.25000 0.15000
v 0.28978 0.32235 0.15000
v 0.45000 0.40000 -0.02500
v 0.43467 0.51647 -0.02500
v 0.38971 0.62500 -0.02500
v 0.31820 0.71820 -0.02500
v 0.22500 0.78971 -0.02500
v 0.11647 0.83467 -0.02500
v 0.00000 0.85000 -0.02500
v -0.11647 0.83467 -0.02500
v -0.22500 0.78971 -0.02500
v -0.31820 0.71820 -0.02500
v -0.38971 0.62500 -0.02500
v -0.43467 0.51647 -0.02500
v -0.45000 0.40000 -0.02500
v -0.43467 0.28353 -0.02500
v -0.38971 0.17500 -0.02500
v -0.31820 0.08180 -0.02500
v -0.22500 0.01029 -0.02500
v -0.11647 -0.03467 -0.02500
v -0.00000 -0.05000 -0.02500
v 0.11647 -0.03467 -0.02500
v 0.22500 0.01029 -0.02500
v 0.31820 0.08180 -0.02500
v 0.38971 0.17500 -0.02500
v 0.43467 0.28353 -0.02500
v 0.45000 0.40000 0.02500
v 0.43467 0.51647 0.02500
v 0.38971 0.62500 0.02500
v 0.31820 0.71820 0.02500
v 0.22500 0.78971 0.02500
v 0.11647 0.83467 0.02500
v 0.00000 0.85000 0.02500
v -0.11647 0.83467 0.02500
v -0.22500 0.78971 0.02500
v -0.31820 0.71820 0.02500
v -0.38971 0.62500 0.02500
v -0.43467 0.51647 0.02500
v -0.45000 0.40000 0.02500
v -0.43467 0.28353 0.02500
v -0.38971 0.17500 0.02500
v -0.31820 0.08180 0.02500
v -0.22500 0.01029 0.02500
v -0.11647 -0.03467 0.02500
v -0.00000 -0.05000 0.02500
v 0.11647 -0.03467 0.02500
v 0.22500 0.01029 0.02500
v 0.31820 0.08180 0.02500
v 0.38971 0.17500 0.02500
v 0.43467 0.28353 0.02500
usemtl MAT_EnergyCyan
f 1 2 26 25
f 2 3 27 26
f 3 4 28 27
f 4 5 29 28
f 5 6 30 29
f 6 7 31 30
f 7 8 32 31
f 8 9 33 32
f 9 10 34 33
f 10 11 35 34
f 11 12 36 35
f 12 13 37 36
f 13 14 38 37
f 14 15 39 38
f 15 16 40 39
f 16 17 41 40
f 17 18 42 41
f 18 19 43 42
f 19 20 44 43
f 20 21 45 44
f 21 22 46 45
f 22 23 47 46
f 23 24 48 47
f 24 1 25 48
f 24 23 22 21 20 19 18 17 16 15 14 13 12 11 10 9 8 7 6 5 4 3 2 1
f 25 26 27 28 29 30 31 32 33 34 35 36 37 38 39 40 41 42 43 44 45 46 47 48
usemtl MAT_EnergyBlue
f 49 50 74 73
f 50 51 75 74
f 51 52 76 75
f 52 53 77 76
f 53 54 78 77
f 54 55 79 78
f 55 56 80 79
f 56 57 81 80
f 57 58 82 81
f 58 59 83 82
f 59 60 84 83
f 60 61 85 84
f 61 62 86 85
f 62 63 87 86
f 63 64 88 87
f 64 65 89 88
f 65 66 90 89
f 66 67 91 90
f 67 68 92 91
f 68 69 93 92
f 69 70 94 93
f 70 71 95 94
f 71 72 96 95
f 72 49 73 96
f 72 71 70 69 68 67 66 65 64 63 62 61 60 59 58 57 56 55 54 53 52 51 50 49
f 73 74 75 76 77 78 79 80 81 82 83 84 85 86 87 88 89 90 91 92 93 94 95 96
