# SM_LightPillar
mtllib ../Materials/AXION_LevelKit.mtl
v -0.10000 0.00000 -0.10000
v 0.10000 0.00000 -0.10000
v 0.10000 2.20000 -0.10000
v -0.10000 2.20000 -0.10000
v -0.10000 0.00000 0.10000
v 0.10000 0.00000 0.10000
v 0.10000 2.20000 0.10000
v -0.10000 2.20000 0.10000
v -0.04000 0.10000 -0.06000
v 0.04000 0.10000 -0.06000
v 0.04000 2.10000 -0.06000
v -0.04000 2.10000 -0.06000
v -0.04000 0.10000 0.02000
v 0.04000 0.10000 0.02000
v 0.04000 2.10000 0.02000
v -0.04000 2.10000 0.02000
v -0.30000 2.15000 -0.17500
v 0.30000 2.15000 -0.17500
v 0.30000 2.35000 -0.17500
v -0.30000 2.35000 -0.17500
v -0.30000 2.15000 0.17500
v 0.30000 2.15000 0.17500
v 0.30000 2.35000 0.17500
v -0.30000 2.35000 0.17500
usemtl MAT_DarkMetal
f 1 2 3 4
f 5 8 7 6
f 1 5 6 2
f 2 6 7 3
f 3 7 8 4
f 4 8 5 1
usemtl MAT_EnergyCyan
f 9 10 11 12
f 13 16 15 14
f 9 13 14 10
f 10 14 15 11
f 11 15 16 12
f 12 16 13 9
usemtl MAT_MidMetal
f 17 18 19 20
f 21 24 23 22
f 17 21 22 18
f 18 22 23 19
f 19 23 24 20
f 20 24 21 17
