# SM_Platform_8x1x1
mtllib ../Materials/AXION_LevelKit.mtl
v -4.00000 -0.17500 -0.50000
v 4.00000 -0.17500 -0.50000
v 4.00000 0.17500 -0.50000
v -4.00000 0.17500 -0.50000
v -4.00000 -0.17500 0.50000
v 4.00000 -0.17500 0.50000
v 4.00000 0.17500 0.50000
v -4.00000 0.17500 0.50000
v -3.90000 0.19000 -0.52500
v 3.90000 0.19000 -0.52500
v 3.90000 0.27000 -0.52500
v -3.90000 0.27000 -0.52500
v -3.90000 0.19000 0.52500
v 3.90000 0.19000 0.52500
v 3.90000 0.27000 0.52500
v -3.90000 0.27000 0.52500
v -3.25000 0.30000 -0.54000
v -2.75000 0.30000 -0.54000
v -2.75000 0.34000 -0.54000
v -3.25000 0.34000 -0.54000
v -3.25000 0.30000 0.54000
v -2.75000 0.30000 0.54000
v -2.75000 0.34000 0.54000
v -3.25000 0.34000 0.54000
v -0.25000 0.30000 -0.54000
v 0.25000 0.30000 -0.54000
v 0.25000 0.34000 -0.54000
v -0.25000 0.34000 -0.54000
v -0.25000 0.30000 0.54000
v 0.25000 0.30000 0.54000
v 0.25000 0.34000 0.54000
v -0.25000 0.34000 0.54000
v 2.75000 0.30000 -0.54000
v 3.25000 0.30000 -0.54000
v 3.25000 0.34000 -0.54000
v 2.75000 0.34000 -0.54000
v 2.75000 0.30000 0.54000
v 3.25000 0.30000 0.54000
v 3.25000 0.34000 0.54000
v 2.75000 0.34000 0.54000
usemtl MAT_DarkMetal
f 1 2 3 4
f 5 8 7 6
f 1 5 6 2
f 2 6 7 3
f 3 7 8 4
f 4 8 5 1
usemtl MAT_LightPanel
f 9 10 11 12
f 13 16 15 14
f 9 13 14 10
f 10 14 15 11
f 11 15 16 12
f 12 16 13 9
usemtl MAT_EnergyCyan
f 17 18 19 20
f 21 24 23 22
f 17 21 22 18
f 18 22 23 19
f 19 23 24 20
f 20 24 21 17
usemtl MAT_EnergyCyan
f 25 26 27 28
f 29 32 31 30
f 25 29 30 26
f 26 30 31 27
f 27 31 32 28
f 28 32 29 25
usemtl MAT_EnergyCyan
f 33 34 35 36
f 37 40 39 38
f 33 37 38 34
f 34 38 39 35
f 35 39 40 36
f 36 40 37 33
