# SM_SpikeHazard_3
mtllib ../Materials/AXION_LevelKit.mtl
v -1.20000 -0.07500 -0.45000
v 1.20000 -0.07500 -0.45000
v 1.20000 0.07500 -0.45000
v -1.20000 0.07500 -0.45000
v -1.20000 -0.07500 0.45000
v 1.20000 -0.07500 0.45000
v 1.20000 0.07500 0.45000
v -1.20000 0.07500 0.45000
v -1.12500 0.05000 -0.40000
v -0.47500 0.05000 -0.40000
v -0.80000 0.80000 -0.40000
v -1.12500 0.05000 0.40000
v -0.47500 0.05000 0.40000
v -0.80000 0.80000 0.40000
v -0.32500 0.05000 -0.40000
v 0.32500 0.05000 -0.40000
v 0.00000 0.80000 -0.40000
v -0.32500 0.05000 0.40000
v 0.32500 0.05000 0.40000
v 0.00000 0.80000 0.40000
v 0.47500 0.05000 -0.40000
v 1.12500 0.05000 -0.40000
v 0.80000 0.80000 -0.40000
v 0.47500 0.05000 0.40000
v 1.12500 0.05000 0.40000
v 0.80000 0.80000 0.40000
usemtl MAT_DarkMetal
f 1 2 3 4
f 5 8 7 6
f 1 5 6 2
f 2 6 7 3
f 3 7 8 4
f 4 8 5 1
usemtl MAT_HazardRed
f 9 10 11
f 12 14 13
f 9 12 13 10
f 10 13 14 11
f 11 14 12 9
usemtl MAT_HazardRed
f 15 16 17
f 18 20 19
f 15 18 19 16
f 16 19 20 17
f 17 20 18 15
usemtl MAT_HazardRed
f 21 22 23
f 24 26 25
f 21 24 25 22
f 22 25 26 23
f 23 26 24 21
